<svg width="134" height="144" viewBox="0 0 134 144" fill="none" xmlns="http://www.w3.org/2000/svg">
<path d="M0 134.205C0 133.652 0.447715 133.205 1 133.205H132.565C133.117 133.205 133.565 133.652 133.565 134.205V143C133.565 143.552 133.117 144 132.565 144H0.999999C0.447714 144 0 143.552 0 143V134.205Z" fill="url(#paint0_linear_12_6401)" fill-opacity="0.8"/>
<path d="M99.8819 61.0006H33.6972V96.253C33.6972 109.041 36.6349 113.188 51.669 112.842V117.854H0V112.842C14.6885 113.015 17.6262 109.041 17.6262 97.2898V19.8727C17.6262 8.98592 14.3429 4.66577 0 5.01137V0H51.669V5.01137C39.7454 4.66577 33.6972 7.08505 33.6972 19.5271V54.4339H99.8819V19.5271C99.8819 8.98592 96.0802 4.66577 81.9101 5.01137V0H133.579V5.01137C119.063 4.83857 115.953 8.64031 115.953 19.8727V97.6355C115.953 109.213 119.582 113.534 133.579 112.842V117.854H81.9101V112.842C96.7714 113.188 99.8819 108.349 99.8819 98.1539V61.0006Z" fill="#444444"/>
<defs>
<linearGradient id="paint0_linear_12_6401" x1="-0.104706" y1="133.205" x2="133.397" y2="133.205" gradientUnits="userSpaceOnUse">
<stop stop-color="#34D399"/>
<stop offset="1" stop-color="#22D3EE"/>
</linearGradient>
</defs>
</svg>
